<mxfile host="Electron" modified="2025-01-03T02:27:55.691Z" agent="Mozilla/5.0 (Windows NT 10.0; Win64; x64) AppleWebKit/537.36 (KHTML, like Gecko) draw.io/24.6.1 Chrome/124.0.6367.207 Electron/30.0.6 Safari/537.36" etag="AbuwVgSmSFOp-5fRw7O8" version="24.6.1" type="device">
  <diagram name="페이지-1" id="BSk46zJR4BapjBhaLKWl">
    <mxGraphModel dx="2035" dy="1385" grid="1" gridSize="10" guides="1" tooltips="1" connect="1" arrows="1" fold="1" page="1" pageScale="1" pageWidth="1654" pageHeight="1169" math="0" shadow="0">
      <root>
        <mxCell id="0" />
        <mxCell id="1" parent="0" />
        <mxCell id="BhEsDL0zgsTARBwvcJRD-3" value="" style="rounded=0;whiteSpace=wrap;html=1;fillStyle=hatch;gradientColor=none;fillColor=#000000;" parent="1" vertex="1">
          <mxGeometry x="435" y="143" width="430" height="10" as="geometry" />
        </mxCell>
        <mxCell id="BhEsDL0zgsTARBwvcJRD-4" value="" style="rounded=0;whiteSpace=wrap;html=1;fillStyle=hatch;gradientColor=none;fillColor=#000000;" parent="1" vertex="1">
          <mxGeometry x="435" y="423" width="430" height="10" as="geometry" />
        </mxCell>
        <mxCell id="BhEsDL0zgsTARBwvcJRD-5" value="" style="rounded=0;whiteSpace=wrap;html=1;rotation=-90;fillStyle=hatch;gradientColor=none;fillColor=#000000;" parent="1" vertex="1">
          <mxGeometry x="305" y="283" width="270" height="10" as="geometry" />
        </mxCell>
        <mxCell id="BhEsDL0zgsTARBwvcJRD-6" value="" style="rounded=0;whiteSpace=wrap;html=1;rotation=-90;fillStyle=hatch;gradientColor=none;fillColor=#000000;" parent="1" vertex="1">
          <mxGeometry x="801.25" y="206.75" width="117.5" height="10" as="geometry" />
        </mxCell>
        <mxCell id="BhEsDL0zgsTARBwvcJRD-7" value="" style="rounded=0;whiteSpace=wrap;html=1;rotation=-90;fillStyle=hatch;gradientColor=none;fillColor=#000000;" parent="1" vertex="1">
          <mxGeometry x="813.75" y="371.75" width="92.5" height="10" as="geometry" />
        </mxCell>
        <mxCell id="BhEsDL0zgsTARBwvcJRD-8" value="" style="rounded=0;whiteSpace=wrap;html=1;fillStyle=solid;gradientColor=none;fillColor=#000000;" parent="1" vertex="1">
          <mxGeometry x="475" y="390" width="350" height="3" as="geometry" />
        </mxCell>
        <mxCell id="BhEsDL0zgsTARBwvcJRD-9" style="edgeStyle=orthogonalEdgeStyle;rounded=0;orthogonalLoop=1;jettySize=auto;html=1;exitX=0.103;exitY=0.083;exitDx=0;exitDy=0;entryX=0.044;entryY=1.035;entryDx=0;entryDy=0;entryPerimeter=0;curved=1;endArrow=none;endFill=0;exitPerimeter=0;" parent="1" source="BhEsDL0zgsTARBwvcJRD-8" target="BhEsDL0zgsTARBwvcJRD-5" edge="1">
          <mxGeometry relative="1" as="geometry" />
        </mxCell>
        <mxCell id="BhEsDL0zgsTARBwvcJRD-10" value="" style="rounded=0;whiteSpace=wrap;html=1;fillStyle=hatch;gradientColor=none;fillColor=#000000;fontSize=8;strokeWidth=1;opacity=50;" parent="1" vertex="1">
          <mxGeometry x="930" y="273" width="220" height="46" as="geometry" />
        </mxCell>
        <mxCell id="BhEsDL0zgsTARBwvcJRD-14" value="" style="rounded=0;whiteSpace=wrap;html=1;fillStyle=hatch;gradientColor=none;fillColor=#000000;fontSize=20;" parent="1" vertex="1">
          <mxGeometry x="1215" y="143" width="430" height="10" as="geometry" />
        </mxCell>
        <mxCell id="BhEsDL0zgsTARBwvcJRD-15" value="" style="rounded=0;whiteSpace=wrap;html=1;fillStyle=hatch;gradientColor=none;fillColor=#000000;" parent="1" vertex="1">
          <mxGeometry x="1215" y="423" width="430" height="10" as="geometry" />
        </mxCell>
        <mxCell id="BhEsDL0zgsTARBwvcJRD-16" value="" style="rounded=0;whiteSpace=wrap;html=1;fillStyle=solid;gradientColor=none;fillColor=#000000;" parent="1" vertex="1">
          <mxGeometry x="1255" y="390" width="350" height="3" as="geometry" />
        </mxCell>
        <mxCell id="BhEsDL0zgsTARBwvcJRD-18" value="Common Mode&amp;nbsp;&lt;span style=&quot;background-color: initial; font-size: 20px;&quot;&gt;Choke&lt;br&gt;&lt;/span&gt;" style="rounded=0;whiteSpace=wrap;html=1;fillColor=none;verticalAlign=top;strokeColor=none;fontSize=20;fontStyle=1" parent="1" vertex="1">
          <mxGeometry x="1470" y="180" width="140" height="60" as="geometry" />
        </mxCell>
        <mxCell id="BhEsDL0zgsTARBwvcJRD-26" value="" style="group" parent="1" vertex="1" connectable="0">
          <mxGeometry x="2140" y="160" width="220" height="240" as="geometry" />
        </mxCell>
        <mxCell id="BhEsDL0zgsTARBwvcJRD-20" value="" style="shape=or;whiteSpace=wrap;html=1;rotation=-90;fillColor=#000000;fillStyle=hatch;" parent="BhEsDL0zgsTARBwvcJRD-26" vertex="1">
          <mxGeometry x="-10" y="10" width="240" height="220" as="geometry" />
        </mxCell>
        <mxCell id="BhEsDL0zgsTARBwvcJRD-21" value="Chamber" style="rounded=0;whiteSpace=wrap;html=1;strokeWidth=0;strokeColor=none;fontSize=19;fontStyle=1" parent="BhEsDL0zgsTARBwvcJRD-26" vertex="1">
          <mxGeometry x="60" y="120.5" width="100" height="24" as="geometry" />
        </mxCell>
        <mxCell id="Hj1iMoCnfsoCEsEghbHw-45" value="" style="endArrow=none;dashed=1;html=1;dashPattern=1 3;strokeWidth=4;rounded=0;" parent="BhEsDL0zgsTARBwvcJRD-26" edge="1">
          <mxGeometry width="50" height="50" relative="1" as="geometry">
            <mxPoint x="40" y="330" as="sourcePoint" />
            <mxPoint x="40" y="150" as="targetPoint" />
          </mxGeometry>
        </mxCell>
        <mxCell id="BhEsDL0zgsTARBwvcJRD-33" style="edgeStyle=orthogonalEdgeStyle;rounded=0;orthogonalLoop=1;jettySize=auto;html=1;exitX=1;exitY=0.25;exitDx=0;exitDy=0;entryX=0;entryY=0.25;entryDx=0;entryDy=0;endArrow=none;endFill=0;" parent="1" source="BhEsDL0zgsTARBwvcJRD-29" target="BhEsDL0zgsTARBwvcJRD-31" edge="1">
          <mxGeometry relative="1" as="geometry">
            <Array as="points">
              <mxPoint x="1040" y="300" />
              <mxPoint x="1040" y="300" />
            </Array>
          </mxGeometry>
        </mxCell>
        <mxCell id="BhEsDL0zgsTARBwvcJRD-29" value="" style="rounded=0;whiteSpace=wrap;html=1;fillStyle=solid;gradientColor=none;fillColor=#000000;" parent="1" vertex="1">
          <mxGeometry x="720" y="300" width="130" height="3" as="geometry" />
        </mxCell>
        <mxCell id="BhEsDL0zgsTARBwvcJRD-31" value="" style="rounded=0;whiteSpace=wrap;html=1;fillStyle=solid;gradientColor=none;fillColor=#000000;" parent="1" vertex="1">
          <mxGeometry x="1230" y="300" width="80" height="3" as="geometry" />
        </mxCell>
        <mxCell id="BhEsDL0zgsTARBwvcJRD-32" style="edgeStyle=orthogonalEdgeStyle;rounded=0;orthogonalLoop=1;jettySize=auto;html=1;exitX=0.75;exitY=0;exitDx=0;exitDy=0;entryX=0.134;entryY=0.768;entryDx=0;entryDy=0;entryPerimeter=0;endArrow=none;endFill=0;" parent="1" source="BhEsDL0zgsTARBwvcJRD-8" target="BhEsDL0zgsTARBwvcJRD-29" edge="1">
          <mxGeometry relative="1" as="geometry" />
        </mxCell>
        <mxCell id="BhEsDL0zgsTARBwvcJRD-58" style="edgeStyle=orthogonalEdgeStyle;rounded=0;orthogonalLoop=1;jettySize=auto;html=1;exitX=1;exitY=0.5;exitDx=0;exitDy=0;entryX=0;entryY=0.5;entryDx=0;entryDy=0;endArrow=none;endFill=0;" parent="1" source="BhEsDL0zgsTARBwvcJRD-37" target="BhEsDL0zgsTARBwvcJRD-55" edge="1">
          <mxGeometry relative="1" as="geometry" />
        </mxCell>
        <mxCell id="BhEsDL0zgsTARBwvcJRD-37" value="" style="rounded=0;whiteSpace=wrap;html=1;fillStyle=solid;gradientColor=none;fillColor=#000000;" parent="1" vertex="1">
          <mxGeometry x="1320" y="300" width="310" height="3" as="geometry" />
        </mxCell>
        <mxCell id="BhEsDL0zgsTARBwvcJRD-42" style="edgeStyle=orthogonalEdgeStyle;rounded=0;orthogonalLoop=1;jettySize=auto;html=1;entryX=0.25;entryY=1;entryDx=0;entryDy=0;curved=1;endArrow=none;endFill=0;exitX=0.079;exitY=0.022;exitDx=0;exitDy=0;exitPerimeter=0;" parent="1" source="BhEsDL0zgsTARBwvcJRD-16" target="Hj1iMoCnfsoCEsEghbHw-35" edge="1">
          <mxGeometry relative="1" as="geometry">
            <mxPoint x="1300" y="360" as="sourcePoint" />
            <mxPoint x="1224.5600000000004" y="409.3499999999999" as="targetPoint" />
          </mxGeometry>
        </mxCell>
        <mxCell id="BhEsDL0zgsTARBwvcJRD-43" style="edgeStyle=orthogonalEdgeStyle;rounded=0;orthogonalLoop=1;jettySize=auto;html=1;exitX=0.5;exitY=1;exitDx=0;exitDy=0;entryX=0.27;entryY=-0.111;entryDx=0;entryDy=0;entryPerimeter=0;endArrow=none;endFill=0;" parent="1" target="BhEsDL0zgsTARBwvcJRD-16" edge="1">
          <mxGeometry relative="1" as="geometry">
            <mxPoint x="1350" y="303" as="sourcePoint" />
            <Array as="points">
              <mxPoint x="1351" y="303" />
              <mxPoint x="1351" y="390" />
            </Array>
          </mxGeometry>
        </mxCell>
        <mxCell id="BhEsDL0zgsTARBwvcJRD-45" value="Filter" style="rounded=0;whiteSpace=wrap;html=1;fillColor=none;verticalAlign=top;strokeColor=none;" parent="1" vertex="1">
          <mxGeometry x="1420" y="237" width="60" height="28" as="geometry" />
        </mxCell>
        <mxCell id="BhEsDL0zgsTARBwvcJRD-46" style="edgeStyle=orthogonalEdgeStyle;rounded=0;orthogonalLoop=1;jettySize=auto;html=1;exitX=0.422;exitY=0.778;exitDx=0;exitDy=0;entryX=0.549;entryY=0.089;entryDx=0;entryDy=0;entryPerimeter=0;endArrow=none;endFill=0;exitPerimeter=0;" parent="1" source="BhEsDL0zgsTARBwvcJRD-37" target="BhEsDL0zgsTARBwvcJRD-16" edge="1">
          <mxGeometry relative="1" as="geometry">
            <Array as="points">
              <mxPoint x="1440" y="302" />
              <mxPoint x="1440" y="390" />
            </Array>
            <mxPoint x="1475" y="353" as="sourcePoint" />
          </mxGeometry>
        </mxCell>
        <mxCell id="BhEsDL0zgsTARBwvcJRD-51" value="" style="rounded=0;whiteSpace=wrap;html=1;fillStyle=hatch;gradientColor=none;fillColor=#000000;" parent="1" vertex="1">
          <mxGeometry x="1996" y="423" width="98" height="10" as="geometry" />
        </mxCell>
        <mxCell id="BhEsDL0zgsTARBwvcJRD-52" value="" style="rounded=0;whiteSpace=wrap;html=1;rotation=-90;fillStyle=hatch;gradientColor=none;fillColor=#000000;" parent="1" vertex="1">
          <mxGeometry x="2042" y="195.5" width="95" height="10" as="geometry" />
        </mxCell>
        <mxCell id="BhEsDL0zgsTARBwvcJRD-53" value="" style="rounded=0;whiteSpace=wrap;html=1;rotation=-90;fillStyle=hatch;gradientColor=none;fillColor=#000000;" parent="1" vertex="1">
          <mxGeometry x="2037" y="365.5" width="105" height="10" as="geometry" />
        </mxCell>
        <mxCell id="BhEsDL0zgsTARBwvcJRD-54" value="" style="rounded=0;whiteSpace=wrap;html=1;fillStyle=hatch;gradientColor=none;fillColor=#000000;fontSize=20;" parent="1" vertex="1">
          <mxGeometry x="1996" y="143" width="98" height="10" as="geometry" />
        </mxCell>
        <mxCell id="BhEsDL0zgsTARBwvcJRD-77" style="edgeStyle=orthogonalEdgeStyle;rounded=0;orthogonalLoop=1;jettySize=auto;html=1;exitX=0.25;exitY=1;exitDx=0;exitDy=0;entryX=0.75;entryY=1;entryDx=0;entryDy=0;endArrow=none;endFill=0;curved=1;" parent="1" source="BhEsDL0zgsTARBwvcJRD-55" edge="1">
          <mxGeometry relative="1" as="geometry">
            <Array as="points">
              <mxPoint x="2040" y="305" />
              <mxPoint x="2040" y="320" />
              <mxPoint x="2030" y="320" />
              <mxPoint x="2030" y="344" />
            </Array>
            <mxPoint x="2005.5" y="344.25" as="targetPoint" />
          </mxGeometry>
        </mxCell>
        <mxCell id="BhEsDL0zgsTARBwvcJRD-55" value="" style="rounded=0;whiteSpace=wrap;html=1;fillStyle=solid;gradientColor=none;fillColor=#000000;" parent="1" vertex="1">
          <mxGeometry x="2000" y="300" width="90" height="3" as="geometry" />
        </mxCell>
        <mxCell id="BhEsDL0zgsTARBwvcJRD-59" style="edgeStyle=orthogonalEdgeStyle;rounded=0;orthogonalLoop=1;jettySize=auto;html=1;exitX=1;exitY=0.5;exitDx=0;exitDy=0;entryX=0.406;entryY=0.031;entryDx=0;entryDy=0;entryPerimeter=0;endArrow=none;endFill=0;" parent="1" source="BhEsDL0zgsTARBwvcJRD-55" target="BhEsDL0zgsTARBwvcJRD-20" edge="1">
          <mxGeometry relative="1" as="geometry" />
        </mxCell>
        <mxCell id="BhEsDL0zgsTARBwvcJRD-60" value="" style="rounded=0;whiteSpace=wrap;html=1;fillStyle=hatch;gradientColor=none;fillColor=#000000;" parent="1" vertex="1">
          <mxGeometry x="2095" y="238" width="55" height="10" as="geometry" />
        </mxCell>
        <mxCell id="BhEsDL0zgsTARBwvcJRD-61" value="" style="rounded=0;whiteSpace=wrap;html=1;fillStyle=hatch;gradientColor=none;fillColor=#000000;" parent="1" vertex="1">
          <mxGeometry x="2095" y="318" width="45" height="10" as="geometry" />
        </mxCell>
        <mxCell id="BhEsDL0zgsTARBwvcJRD-62" value="" style="verticalLabelPosition=bottom;shadow=0;dashed=0;align=center;html=1;verticalAlign=top;shape=mxgraph.electrical.opto_electronics.opto-coupler;fillColor=default;strokeWidth=1;" parent="1" vertex="1">
          <mxGeometry x="1283" y="257.39" width="67" height="40.61" as="geometry" />
        </mxCell>
        <mxCell id="BhEsDL0zgsTARBwvcJRD-63" value="Digital Isolator" style="rounded=0;whiteSpace=wrap;html=1;fillColor=none;verticalAlign=middle;strokeColor=none;fontSize=20;fontStyle=1" parent="1" vertex="1">
          <mxGeometry x="1230" y="213" width="173" height="14" as="geometry" />
        </mxCell>
        <mxCell id="BhEsDL0zgsTARBwvcJRD-65" value="" style="rounded=0;whiteSpace=wrap;html=1;strokeColor=default;fillColor=#000000;fillStyle=hatch;" parent="1" vertex="1">
          <mxGeometry x="410" y="500" width="1980" height="60" as="geometry" />
        </mxCell>
        <mxCell id="BhEsDL0zgsTARBwvcJRD-67" style="edgeStyle=orthogonalEdgeStyle;rounded=0;orthogonalLoop=1;jettySize=auto;html=1;exitX=0.25;exitY=1;exitDx=0;exitDy=0;entryX=0.067;entryY=-0.022;entryDx=0;entryDy=0;entryPerimeter=0;endArrow=none;endFill=0;" parent="1" source="BhEsDL0zgsTARBwvcJRD-4" target="BhEsDL0zgsTARBwvcJRD-65" edge="1">
          <mxGeometry relative="1" as="geometry" />
        </mxCell>
        <mxCell id="BhEsDL0zgsTARBwvcJRD-68" style="edgeStyle=orthogonalEdgeStyle;rounded=0;orthogonalLoop=1;jettySize=auto;html=1;exitX=0.25;exitY=1;exitDx=0;exitDy=0;entryX=0.461;entryY=-0.026;entryDx=0;entryDy=0;entryPerimeter=0;endArrow=none;endFill=0;" parent="1" source="BhEsDL0zgsTARBwvcJRD-15" target="BhEsDL0zgsTARBwvcJRD-65" edge="1">
          <mxGeometry relative="1" as="geometry" />
        </mxCell>
        <mxCell id="BhEsDL0zgsTARBwvcJRD-69" style="edgeStyle=orthogonalEdgeStyle;rounded=0;orthogonalLoop=1;jettySize=auto;html=1;exitX=0;exitY=0.25;exitDx=0;exitDy=0;exitPerimeter=0;entryX=0.902;entryY=-0.04;entryDx=0;entryDy=0;entryPerimeter=0;endArrow=none;endFill=0;" parent="1" source="BhEsDL0zgsTARBwvcJRD-20" target="BhEsDL0zgsTARBwvcJRD-65" edge="1">
          <mxGeometry relative="1" as="geometry">
            <Array as="points">
              <mxPoint x="2195" y="498" />
            </Array>
          </mxGeometry>
        </mxCell>
        <mxCell id="BhEsDL0zgsTARBwvcJRD-74" value="" style="shape=cross;whiteSpace=wrap;html=1;rotation=45;" parent="1" vertex="1">
          <mxGeometry x="1290" y="303" width="30" height="30" as="geometry" />
        </mxCell>
        <mxCell id="BhEsDL0zgsTARBwvcJRD-78" value="RFSoC Enclosure" style="rounded=0;whiteSpace=wrap;html=1;fillColor=none;verticalAlign=middle;strokeColor=none;fontSize=20;fontStyle=1" parent="1" vertex="1">
          <mxGeometry x="550" y="110" width="200" height="14" as="geometry" />
        </mxCell>
        <mxCell id="BhEsDL0zgsTARBwvcJRD-79" value="DAC Enclosure" style="rounded=0;whiteSpace=wrap;html=1;fillColor=none;verticalAlign=middle;strokeColor=none;fontSize=20;fontStyle=1" parent="1" vertex="1">
          <mxGeometry x="1340" y="110" width="180" height="14" as="geometry" />
        </mxCell>
        <mxCell id="BhEsDL0zgsTARBwvcJRD-80" value="Filter Enclosure" style="rounded=0;whiteSpace=wrap;html=1;fillColor=none;verticalAlign=middle;strokeColor=none;fontSize=20;fontStyle=1" parent="1" vertex="1">
          <mxGeometry x="1930" y="110" width="230" height="14" as="geometry" />
        </mxCell>
        <mxCell id="BhEsDL0zgsTARBwvcJRD-81" value="" style="verticalLabelPosition=bottom;shadow=0;dashed=0;align=center;html=1;verticalAlign=top;shape=mxgraph.electrical.logic_gates.lowpass_filter;" parent="1" vertex="1">
          <mxGeometry x="1440" y="265" width="52" height="30" as="geometry" />
        </mxCell>
        <mxCell id="BhEsDL0zgsTARBwvcJRD-82" value="Filter" style="rounded=0;whiteSpace=wrap;html=1;fillColor=none;verticalAlign=top;strokeColor=none;fontStyle=1" parent="1" vertex="1">
          <mxGeometry x="1970" y="230" width="150" height="28" as="geometry" />
        </mxCell>
        <mxCell id="BhEsDL0zgsTARBwvcJRD-83" value="" style="verticalLabelPosition=bottom;shadow=0;dashed=0;align=center;html=1;verticalAlign=top;shape=mxgraph.electrical.logic_gates.lowpass_filter;" parent="1" vertex="1">
          <mxGeometry x="2019" y="268.25" width="52" height="30" as="geometry" />
        </mxCell>
        <mxCell id="BhEsDL0zgsTARBwvcJRD-84" value="" style="edgeStyle=elbowEdgeStyle;orthogonalLoop=1;jettySize=auto;html=1;rounded=0;dashed=1;" parent="1" edge="1">
          <mxGeometry width="80" relative="1" as="geometry">
            <mxPoint x="610" y="380" as="sourcePoint" />
            <mxPoint x="1280" y="280" as="targetPoint" />
            <Array as="points">
              <mxPoint x="710" y="330" />
            </Array>
          </mxGeometry>
        </mxCell>
        <mxCell id="BhEsDL0zgsTARBwvcJRD-85" value="" style="pointerEvents=1;shadow=0;dashed=0;html=1;strokeColor=none;fillColor=#000000;labelPosition=center;verticalLabelPosition=bottom;verticalAlign=top;align=center;outlineConnect=0;shape=mxgraph.veeam.cpu;strokeWidth=1;" parent="1" vertex="1">
          <mxGeometry x="530.2" y="340" width="44.8" height="44.8" as="geometry" />
        </mxCell>
        <mxCell id="BhEsDL0zgsTARBwvcJRD-86" value="" style="pointerEvents=1;shadow=0;dashed=0;html=1;strokeColor=none;fillColor=#000000;labelPosition=center;verticalLabelPosition=bottom;verticalAlign=top;align=center;outlineConnect=0;shape=mxgraph.veeam.cpu;strokeWidth=1;" parent="1" vertex="1">
          <mxGeometry x="1370" y="340" width="44.8" height="44.8" as="geometry" />
        </mxCell>
        <mxCell id="BhEsDL0zgsTARBwvcJRD-88" value="DAC" style="rounded=0;whiteSpace=wrap;html=1;fillColor=none;verticalAlign=top;strokeColor=none;" parent="1" vertex="1">
          <mxGeometry x="1380" y="319" width="24.8" height="28" as="geometry" />
        </mxCell>
        <mxCell id="BhEsDL0zgsTARBwvcJRD-89" value="FPGA" style="rounded=0;whiteSpace=wrap;html=1;fillColor=none;verticalAlign=top;strokeColor=none;" parent="1" vertex="1">
          <mxGeometry x="522.6000000000001" y="319" width="60" height="28" as="geometry" />
        </mxCell>
        <mxCell id="BhEsDL0zgsTARBwvcJRD-90" value="" style="edgeStyle=orthogonalEdgeStyle;orthogonalLoop=1;jettySize=auto;html=1;rounded=0;dashed=1;exitX=1.013;exitY=0.516;exitDx=0;exitDy=0;exitPerimeter=0;" parent="1" source="BhEsDL0zgsTARBwvcJRD-62" edge="1">
          <mxGeometry width="80" relative="1" as="geometry">
            <mxPoint x="1370" y="310" as="sourcePoint" />
            <mxPoint x="1370" y="340" as="targetPoint" />
          </mxGeometry>
        </mxCell>
        <mxCell id="BhEsDL0zgsTARBwvcJRD-91" value="" style="edgeStyle=elbowEdgeStyle;orthogonalLoop=1;jettySize=auto;html=1;rounded=0;dashed=1;entryX=0.151;entryY=-1.46;entryDx=0;entryDy=0;entryPerimeter=0;" parent="1" target="BhEsDL0zgsTARBwvcJRD-55" edge="1">
          <mxGeometry width="80" relative="1" as="geometry">
            <mxPoint x="1420" y="380" as="sourcePoint" />
            <mxPoint x="2010" y="280" as="targetPoint" />
            <Array as="points">
              <mxPoint x="1430" y="330" />
            </Array>
          </mxGeometry>
        </mxCell>
        <mxCell id="BhEsDL0zgsTARBwvcJRD-92" value="" style="group" parent="1" vertex="1" connectable="0">
          <mxGeometry x="1506" y="241.5" width="73" height="53.5" as="geometry" />
        </mxCell>
        <mxCell id="BhEsDL0zgsTARBwvcJRD-41" value="" style="group" parent="BhEsDL0zgsTARBwvcJRD-92" vertex="1" connectable="0">
          <mxGeometry x="12" y="5" width="46" height="44" as="geometry" />
        </mxCell>
        <mxCell id="BhEsDL0zgsTARBwvcJRD-38" value="" style="pointerEvents=1;verticalLabelPosition=bottom;shadow=0;dashed=0;align=center;html=1;verticalAlign=top;shape=mxgraph.electrical.inductors.transformer;direction=north;" parent="BhEsDL0zgsTARBwvcJRD-41" vertex="1">
          <mxGeometry x="10" width="36" height="44" as="geometry" />
        </mxCell>
        <mxCell id="BhEsDL0zgsTARBwvcJRD-39" value="" style="ellipse;whiteSpace=wrap;html=1;fillColor=#000000;" parent="BhEsDL0zgsTARBwvcJRD-41" vertex="1">
          <mxGeometry y="30" width="5" height="5" as="geometry" />
        </mxCell>
        <mxCell id="BhEsDL0zgsTARBwvcJRD-40" value="" style="ellipse;whiteSpace=wrap;html=1;fillColor=#000000;" parent="BhEsDL0zgsTARBwvcJRD-41" vertex="1">
          <mxGeometry y="10" width="5" height="5" as="geometry" />
        </mxCell>
        <mxCell id="BhEsDL0zgsTARBwvcJRD-64" value="" style="rounded=0;whiteSpace=wrap;html=1;fillColor=none;verticalAlign=top;" parent="BhEsDL0zgsTARBwvcJRD-92" vertex="1">
          <mxGeometry width="73" height="53.5" as="geometry" />
        </mxCell>
        <mxCell id="BhEsDL0zgsTARBwvcJRD-93" value="" style="edgeStyle=none;orthogonalLoop=1;jettySize=auto;html=1;rounded=0;dashed=1;" parent="1" edge="1">
          <mxGeometry width="80" relative="1" as="geometry">
            <mxPoint x="2073" y="296.08" as="sourcePoint" />
            <mxPoint x="2142" y="295.83" as="targetPoint" />
            <Array as="points" />
          </mxGeometry>
        </mxCell>
        <mxCell id="BhEsDL0zgsTARBwvcJRD-95" value="Earth GND" style="rounded=0;whiteSpace=wrap;html=1;strokeWidth=0;strokeColor=none;fontSize=19;align=center;fontStyle=1" parent="1" vertex="1">
          <mxGeometry x="1370" y="518" width="140" height="24" as="geometry" />
        </mxCell>
        <mxCell id="BhEsDL0zgsTARBwvcJRD-96" value="" style="rounded=0;whiteSpace=wrap;html=1;fillStyle=solid;gradientColor=none;fillColor=#000000;" parent="1" vertex="1">
          <mxGeometry x="2170" y="50" width="79" height="3" as="geometry" />
        </mxCell>
        <mxCell id="BhEsDL0zgsTARBwvcJRD-97" value="Signal/Neutral GND" style="rounded=0;whiteSpace=wrap;html=1;strokeWidth=0;strokeColor=none;fontSize=19;align=left;fontStyle=1" parent="1" vertex="1">
          <mxGeometry x="2260" y="40" width="200" height="24" as="geometry" />
        </mxCell>
        <mxCell id="BhEsDL0zgsTARBwvcJRD-99" value="Ground Loop" style="rounded=0;whiteSpace=wrap;html=1;strokeWidth=0;strokeColor=none;fontSize=19;align=left;fontStyle=1" parent="1" vertex="1">
          <mxGeometry x="2260" y="90" width="140" height="24" as="geometry" />
        </mxCell>
        <mxCell id="BhEsDL0zgsTARBwvcJRD-103" style="edgeStyle=orthogonalEdgeStyle;rounded=0;orthogonalLoop=1;jettySize=auto;html=1;exitX=0;exitY=0.5;exitDx=0;exitDy=0;endArrow=none;endFill=0;" parent="1" source="BhEsDL0zgsTARBwvcJRD-100" edge="1">
          <mxGeometry relative="1" as="geometry">
            <mxPoint x="540" y="570" as="targetPoint" />
          </mxGeometry>
        </mxCell>
        <mxCell id="BhEsDL0zgsTARBwvcJRD-104" style="edgeStyle=orthogonalEdgeStyle;rounded=0;orthogonalLoop=1;jettySize=auto;html=1;exitX=1;exitY=0.5;exitDx=0;exitDy=0;endArrow=none;endFill=0;" parent="1" source="BhEsDL0zgsTARBwvcJRD-100" edge="1">
          <mxGeometry relative="1" as="geometry">
            <mxPoint x="1320" y="570" as="targetPoint" />
          </mxGeometry>
        </mxCell>
        <mxCell id="BhEsDL0zgsTARBwvcJRD-100" value="Vn1" style="ellipse;whiteSpace=wrap;html=1;aspect=fixed;fontStyle=1;fontSize=14;" parent="1" vertex="1">
          <mxGeometry x="920" y="585" width="40" height="40" as="geometry" />
        </mxCell>
        <mxCell id="BhEsDL0zgsTARBwvcJRD-105" value="Vn2" style="ellipse;whiteSpace=wrap;html=1;aspect=fixed;fontStyle=1;fontSize=14;" parent="1" vertex="1">
          <mxGeometry x="1890" y="585" width="40" height="40" as="geometry" />
        </mxCell>
        <mxCell id="BhEsDL0zgsTARBwvcJRD-106" style="edgeStyle=orthogonalEdgeStyle;rounded=0;orthogonalLoop=1;jettySize=auto;html=1;exitX=0;exitY=0.5;exitDx=0;exitDy=0;endArrow=none;endFill=0;" parent="1" source="BhEsDL0zgsTARBwvcJRD-105" edge="1">
          <mxGeometry relative="1" as="geometry">
            <mxPoint x="1610" y="570" as="targetPoint" />
            <Array as="points">
              <mxPoint x="1610" y="605" />
              <mxPoint x="1610" y="570" />
            </Array>
          </mxGeometry>
        </mxCell>
        <mxCell id="BhEsDL0zgsTARBwvcJRD-107" style="edgeStyle=orthogonalEdgeStyle;rounded=0;orthogonalLoop=1;jettySize=auto;html=1;exitX=1;exitY=0.5;exitDx=0;exitDy=0;endArrow=none;endFill=0;" parent="1" source="BhEsDL0zgsTARBwvcJRD-105" edge="1">
          <mxGeometry relative="1" as="geometry">
            <mxPoint x="2200" y="570" as="targetPoint" />
          </mxGeometry>
        </mxCell>
        <mxCell id="BhEsDL0zgsTARBwvcJRD-108" value="Shielded D SUB Cable" style="rounded=0;whiteSpace=wrap;html=1;fillColor=none;verticalAlign=middle;strokeColor=none;fontSize=20;fontStyle=1" parent="1" vertex="1">
          <mxGeometry x="930" y="220" width="220" height="14" as="geometry" />
        </mxCell>
        <mxCell id="BhEsDL0zgsTARBwvcJRD-109" value="Shielded D SUB Cable" style="rounded=0;whiteSpace=wrap;html=1;fillColor=none;verticalAlign=middle;strokeColor=none;fontSize=20;fontStyle=1" parent="1" vertex="1">
          <mxGeometry x="1710" y="110" width="220" height="14" as="geometry" />
        </mxCell>
        <mxCell id="Hj1iMoCnfsoCEsEghbHw-1" value="DAC 8734 Board" style="rounded=0;whiteSpace=wrap;html=1;fillColor=none;verticalAlign=top;strokeColor=none;fontStyle=1;fontSize=16;" parent="1" vertex="1">
          <mxGeometry x="1449.8" y="360" width="155.2" height="18" as="geometry" />
        </mxCell>
        <mxCell id="Hj1iMoCnfsoCEsEghbHw-2" value="Shield Board" style="rounded=0;whiteSpace=wrap;html=1;fillColor=none;verticalAlign=top;strokeColor=none;" parent="1" vertex="1">
          <mxGeometry x="1334.8" y="167.5" width="155.2" height="28" as="geometry" />
        </mxCell>
        <mxCell id="Hj1iMoCnfsoCEsEghbHw-8" value="High Frequency Noise(&amp;gt;1MHz)" style="rounded=0;whiteSpace=wrap;html=1;fillColor=none;verticalAlign=top;strokeColor=none;fontSize=14;fontStyle=1" parent="1" vertex="1">
          <mxGeometry x="920" y="100" width="240" height="28" as="geometry" />
        </mxCell>
        <mxCell id="Hj1iMoCnfsoCEsEghbHw-12" value="" style="endArrow=none;dashed=1;html=1;dashPattern=1 3;strokeWidth=4;rounded=0;" parent="1" edge="1">
          <mxGeometry width="50" height="50" relative="1" as="geometry">
            <mxPoint x="550" y="490" as="sourcePoint" />
            <mxPoint x="1310" y="490" as="targetPoint" />
          </mxGeometry>
        </mxCell>
        <mxCell id="Hj1iMoCnfsoCEsEghbHw-13" value="" style="endArrow=none;dashed=1;html=1;dashPattern=1 3;strokeWidth=4;rounded=0;" parent="1" edge="1">
          <mxGeometry width="50" height="50" relative="1" as="geometry">
            <mxPoint x="552.4" y="480" as="sourcePoint" />
            <mxPoint x="552" y="400" as="targetPoint" />
          </mxGeometry>
        </mxCell>
        <mxCell id="Hj1iMoCnfsoCEsEghbHw-14" value="" style="endArrow=none;dashed=1;html=1;dashPattern=1 3;strokeWidth=4;rounded=0;" parent="1" edge="1">
          <mxGeometry width="50" height="50" relative="1" as="geometry">
            <mxPoint x="550" y="400" as="sourcePoint" />
            <mxPoint x="750" y="400" as="targetPoint" />
          </mxGeometry>
        </mxCell>
        <mxCell id="Hj1iMoCnfsoCEsEghbHw-16" value="" style="endArrow=none;dashed=1;html=1;dashPattern=1 3;strokeWidth=4;rounded=0;" parent="1" edge="1">
          <mxGeometry width="50" height="50" relative="1" as="geometry">
            <mxPoint x="744.4" y="376.8" as="sourcePoint" />
            <mxPoint x="744" y="296.8" as="targetPoint" />
          </mxGeometry>
        </mxCell>
        <mxCell id="Hj1iMoCnfsoCEsEghbHw-17" value="" style="endArrow=none;dashed=1;html=1;dashPattern=1 3;strokeWidth=4;rounded=0;" parent="1" edge="1">
          <mxGeometry width="50" height="50" relative="1" as="geometry">
            <mxPoint x="760" y="310.5" as="sourcePoint" />
            <mxPoint x="1280" y="311" as="targetPoint" />
          </mxGeometry>
        </mxCell>
        <mxCell id="Hj1iMoCnfsoCEsEghbHw-18" value="" style="endArrow=none;dashed=1;html=1;dashPattern=1 3;strokeWidth=4;rounded=0;" parent="1" edge="1">
          <mxGeometry width="50" height="50" relative="1" as="geometry">
            <mxPoint x="1310.4" y="480" as="sourcePoint" />
            <mxPoint x="1310" y="380" as="targetPoint" />
          </mxGeometry>
        </mxCell>
        <mxCell id="Hj1iMoCnfsoCEsEghbHw-19" value="" style="endArrow=none;dashed=1;html=1;dashPattern=1 3;strokeWidth=4;rounded=0;" parent="1" edge="1">
          <mxGeometry width="50" height="50" relative="1" as="geometry">
            <mxPoint x="1342" y="370" as="sourcePoint" />
            <mxPoint x="1342" y="312.4" as="targetPoint" />
          </mxGeometry>
        </mxCell>
        <mxCell id="Hj1iMoCnfsoCEsEghbHw-20" value="" style="endArrow=none;dashed=1;html=1;dashPattern=1 3;strokeWidth=4;rounded=0;" parent="1" edge="1">
          <mxGeometry width="50" height="50" relative="1" as="geometry">
            <mxPoint x="1307.6499999999999" y="367.5" as="sourcePoint" />
            <mxPoint x="1331.35" y="367.9" as="targetPoint" />
          </mxGeometry>
        </mxCell>
        <mxCell id="Hj1iMoCnfsoCEsEghbHw-21" value="" style="endArrow=none;dashed=1;html=1;dashPattern=1 3;strokeWidth=4;rounded=0;" parent="1" edge="1">
          <mxGeometry width="50" height="50" relative="1" as="geometry">
            <mxPoint x="2170" y="101.71000000000004" as="sourcePoint" />
            <mxPoint x="2250" y="102" as="targetPoint" />
          </mxGeometry>
        </mxCell>
        <mxCell id="Hj1iMoCnfsoCEsEghbHw-22" value="Low Frequency Noise(&amp;lt;1MHz) or Ground Loop" style="rounded=0;whiteSpace=wrap;html=1;fillColor=none;verticalAlign=top;strokeColor=none;fontSize=14;fontStyle=1" parent="1" vertex="1">
          <mxGeometry x="760" y="460" width="360" height="28" as="geometry" />
        </mxCell>
        <mxCell id="Hj1iMoCnfsoCEsEghbHw-30" value="" style="rounded=0;whiteSpace=wrap;html=1;fillStyle=hatch;gradientColor=none;fillColor=#000000;fontSize=8;strokeWidth=1;opacity=50;" parent="1" vertex="1">
          <mxGeometry x="865" y="247" width="65" height="98" as="geometry" />
        </mxCell>
        <mxCell id="Hj1iMoCnfsoCEsEghbHw-33" value="" style="rounded=0;whiteSpace=wrap;html=1;fillStyle=hatch;gradientColor=none;fillColor=#000000;fontSize=8;strokeWidth=1;opacity=50;" parent="1" vertex="1">
          <mxGeometry x="1150" y="247" width="65" height="98" as="geometry" />
        </mxCell>
        <mxCell id="Hj1iMoCnfsoCEsEghbHw-34" value="" style="rounded=0;whiteSpace=wrap;html=1;rotation=-90;fillStyle=hatch;gradientColor=none;fillColor=#000000;" parent="1" vertex="1">
          <mxGeometry x="1161" y="206.75" width="117.5" height="10" as="geometry" />
        </mxCell>
        <mxCell id="Hj1iMoCnfsoCEsEghbHw-35" value="" style="rounded=0;whiteSpace=wrap;html=1;rotation=-90;fillStyle=hatch;gradientColor=none;fillColor=#000000;" parent="1" vertex="1">
          <mxGeometry x="1173.5" y="371.75" width="92.5" height="10" as="geometry" />
        </mxCell>
        <mxCell id="Hj1iMoCnfsoCEsEghbHw-36" value="" style="rounded=0;whiteSpace=wrap;html=1;fillStyle=hatch;gradientColor=none;fillColor=#000000;fontSize=8;strokeWidth=1;opacity=50;" parent="1" vertex="1">
          <mxGeometry x="1928.75" y="247" width="65" height="98" as="geometry" />
        </mxCell>
        <mxCell id="Hj1iMoCnfsoCEsEghbHw-37" value="" style="rounded=0;whiteSpace=wrap;html=1;fillStyle=hatch;gradientColor=none;fillColor=#000000;fontSize=8;strokeWidth=1;opacity=50;" parent="1" vertex="1">
          <mxGeometry x="1708.75" y="273" width="220" height="46" as="geometry" />
        </mxCell>
        <mxCell id="Hj1iMoCnfsoCEsEghbHw-38" value="" style="rounded=0;whiteSpace=wrap;html=1;fillStyle=hatch;gradientColor=none;fillColor=#000000;fontSize=8;strokeWidth=1;opacity=50;" parent="1" vertex="1">
          <mxGeometry x="1643.75" y="247" width="65" height="98" as="geometry" />
        </mxCell>
        <mxCell id="Hj1iMoCnfsoCEsEghbHw-39" value="" style="rounded=0;whiteSpace=wrap;html=1;rotation=-90;fillStyle=hatch;gradientColor=none;fillColor=#000000;" parent="1" vertex="1">
          <mxGeometry x="1580" y="206.75" width="117.5" height="10" as="geometry" />
        </mxCell>
        <mxCell id="Hj1iMoCnfsoCEsEghbHw-40" value="" style="rounded=0;whiteSpace=wrap;html=1;rotation=-90;fillStyle=hatch;gradientColor=none;fillColor=#000000;" parent="1" vertex="1">
          <mxGeometry x="1592.5" y="371.75" width="92.5" height="10" as="geometry" />
        </mxCell>
        <mxCell id="Hj1iMoCnfsoCEsEghbHw-41" value="" style="rounded=0;whiteSpace=wrap;html=1;rotation=-90;fillStyle=hatch;gradientColor=none;fillColor=#000000;" parent="1" vertex="1">
          <mxGeometry x="1941.75" y="206.75" width="117.5" height="10" as="geometry" />
        </mxCell>
        <mxCell id="Hj1iMoCnfsoCEsEghbHw-42" value="" style="rounded=0;whiteSpace=wrap;html=1;rotation=-90;fillStyle=hatch;gradientColor=none;fillColor=#000000;" parent="1" vertex="1">
          <mxGeometry x="1954.25" y="371.75" width="92.5" height="10" as="geometry" />
        </mxCell>
        <mxCell id="Hj1iMoCnfsoCEsEghbHw-43" value="" style="endArrow=none;dashed=1;html=1;dashPattern=1 3;strokeWidth=4;rounded=0;" parent="1" edge="1">
          <mxGeometry width="50" height="50" relative="1" as="geometry">
            <mxPoint x="1550" y="310" as="sourcePoint" />
            <mxPoint x="2168" y="311" as="targetPoint" />
          </mxGeometry>
        </mxCell>
        <mxCell id="Hj1iMoCnfsoCEsEghbHw-44" value="" style="shape=cross;whiteSpace=wrap;html=1;rotation=45;" parent="1" vertex="1">
          <mxGeometry x="1500" y="303" width="30" height="30" as="geometry" />
        </mxCell>
        <mxCell id="Hj1iMoCnfsoCEsEghbHw-46" value="" style="endArrow=none;dashed=1;html=1;dashPattern=1 3;strokeWidth=4;rounded=0;" parent="1" edge="1">
          <mxGeometry width="50" height="50" relative="1" as="geometry">
            <mxPoint x="1330" y="490" as="sourcePoint" />
            <mxPoint x="2170" y="490" as="targetPoint" />
          </mxGeometry>
        </mxCell>
        <mxCell id="Hj1iMoCnfsoCEsEghbHw-47" value="" style="endArrow=none;dashed=1;html=1;dashPattern=1 3;strokeWidth=4;rounded=0;" parent="1" edge="1">
          <mxGeometry width="50" height="50" relative="1" as="geometry">
            <mxPoint x="1331.4" y="479" as="sourcePoint" />
            <mxPoint x="1331" y="399" as="targetPoint" />
          </mxGeometry>
        </mxCell>
        <mxCell id="Hj1iMoCnfsoCEsEghbHw-48" value="" style="endArrow=none;dashed=1;html=1;dashPattern=1 3;strokeWidth=4;rounded=0;" parent="1" edge="1">
          <mxGeometry width="50" height="50" relative="1" as="geometry">
            <mxPoint x="1344.9999999999998" y="400" as="sourcePoint" />
            <mxPoint x="1435" y="400" as="targetPoint" />
          </mxGeometry>
        </mxCell>
        <mxCell id="Hj1iMoCnfsoCEsEghbHw-49" value="" style="endArrow=none;dashed=1;html=1;dashPattern=1 3;strokeWidth=4;rounded=0;" parent="1" edge="1">
          <mxGeometry width="50" height="50" relative="1" as="geometry">
            <mxPoint x="1450" y="400" as="sourcePoint" />
            <mxPoint x="1450" y="310" as="targetPoint" />
          </mxGeometry>
        </mxCell>
        <mxCell id="Hj1iMoCnfsoCEsEghbHw-50" value="" style="endArrow=none;dashed=1;html=1;dashPattern=1 3;strokeWidth=4;rounded=0;" parent="1" edge="1">
          <mxGeometry width="50" height="50" relative="1" as="geometry">
            <mxPoint x="1466" y="310" as="sourcePoint" />
            <mxPoint x="1490" y="310" as="targetPoint" />
          </mxGeometry>
        </mxCell>
        <mxCell id="I_6Est6SAYTh7GbhCSOb-1" value="" style="verticalLabelPosition=bottom;verticalAlign=top;html=1;shape=mxgraph.basic.flash;rotation=-60;fontStyle=1;strokeWidth=2;" vertex="1" parent="1">
          <mxGeometry x="1133.17" y="121.74" width="42.69" height="77" as="geometry" />
        </mxCell>
      </root>
    </mxGraphModel>
  </diagram>
</mxfile>
